<svg width="32" height="32" viewBox="0 0 32 32" fill="none" xmlns="http://www.w3.org/2000/svg">
<g id="canada-flag-circular-17758 1" clip-path="url(#clip0_43353_18863)">
<g id="Group">
<path id="Vector" d="M24.6665 2.61621V29.7344C29.176 26.9046 32.1758 21.8916 32.1758 16.1753C32.1758 10.4591 29.176 5.44608 24.6665 2.61621Z" fill="#BF0A30"/>
<path id="Vector_2" d="M7.68511 2.61621C3.17596 5.44608 0.175781 10.4591 0.175781 16.1753C0.175781 21.8916 3.17596 26.9046 7.68511 29.7344V2.61621Z" fill="#BF0A30"/>
<path id="Vector_3" d="M24.6667 2.61667C22.2052 1.07214 19.2961 0.175781 16.1757 0.175781C13.0554 0.175781 10.1462 1.07214 7.68506 2.61667V29.7349C10.1462 31.2794 13.0554 32.1758 16.1757 32.1758C19.2961 32.1758 22.2052 31.2794 24.6667 29.7349V2.61667Z" fill="#F3F4F5"/>
<path id="Vector_4" d="M16.2874 24.193L16.137 20.8686L19.4711 21.2639C19.2649 20.828 19.081 20.5969 19.272 19.9L22.3383 17.3489L21.8017 17.1548C21.363 16.8163 21.9913 15.5242 22.0862 14.7089C22.0862 14.7089 20.296 15.3247 20.1786 15.0026L19.7228 14.1269L18.094 15.916C17.9162 15.9587 17.8401 15.8879 17.7985 15.7375L18.5509 11.9985L17.3594 12.6687C17.2595 12.7114 17.16 12.6744 17.0942 12.5585L15.9482 10.2588L14.7664 12.6471C14.6775 12.7327 14.5882 12.7427 14.5139 12.6844L13.3793 12.0479L14.0606 15.7578C14.0065 15.905 13.8768 15.9466 13.7239 15.8666L12.1669 14.0977C11.9632 14.4241 11.8252 14.9571 11.5561 15.0766C11.2869 15.1886 10.3852 14.8504 9.78076 14.7185C9.98734 15.4638 10.6327 16.7015 10.2241 17.1071L10.2245 17.1068L9.56494 17.3322L12.633 20.0248C12.8652 20.7167 12.5523 20.9208 12.3532 21.2839L15.6841 20.8611L15.5973 24.2133L16.2874 24.193Z" fill="#BF0A30"/>
</g>
</g>
<defs>
<clipPath id="clip0_43353_18863">
<rect width="32" height="32" fill="white"/>
</clipPath>
</defs>
</svg>
