<svg width="32" height="32" viewBox="0 0 32 32" fill="none" xmlns="http://www.w3.org/2000/svg">
<g id="france-flag-circular-17753 (1) 1" clip-path="url(#clip0_43354_18930)">
<g id="Group">
<path id="Vector" d="M21.5093 1.08984V31.2619C27.7195 29.0664 32.1707 23.1489 32.1761 16.1878V16.1636C32.1711 9.20291 27.7195 3.28504 21.5093 1.08984Z" fill="#F31830"/>
<path id="Vector_2" d="M10.8426 31.2616V1.08984C4.62881 3.28682 0.175781 9.20967 0.175781 16.1757C0.175781 23.1418 4.62881 29.0646 10.8426 31.2616Z" fill="#00267F"/>
<path id="Vector_3" d="M10.8428 31.2616C12.5114 31.8515 14.3056 32.1758 16.1762 32.1758C18.0468 32.1758 19.8409 31.8519 21.5096 31.2616V1.08956C19.8409 0.499692 18.0468 0.175781 16.1762 0.175781C14.3056 0.175781 12.5114 0.500048 10.8428 1.08991V31.2616Z" fill="#F3F4F5"/>
</g>
</g>
<defs>
<clipPath id="clip0_43354_18930">
<rect width="32" height="32" fill="white"/>
</clipPath>
</defs>
</svg>
