<svg width="32" height="32" viewBox="0 0 32 32" fill="none" xmlns="http://www.w3.org/2000/svg">
<g id="germany-flag-circular-17755 1" clip-path="url(#clip0_43346_18849)">
<g id="Group">
<path id="Vector" d="M1.08984 10.8424H31.2619C29.0664 4.63231 23.1489 0.181115 16.1878 0.175781H16.1636C9.20291 0.181115 3.2854 4.63231 1.08984 10.8424Z" fill="black"/>
<path id="Vector_2" d="M31.2619 21.5098H1.08984C3.28682 27.7235 9.21002 32.1764 16.1761 32.1764C23.1421 32.1764 29.065 27.7235 31.2619 21.5098Z" fill="#FFCE00"/>
<path id="Vector_3" d="M31.2616 21.5085C31.8515 19.8398 32.1758 18.0457 32.1758 16.1751C32.1758 14.3046 31.8519 12.5104 31.2616 10.8418H1.08956C0.499692 12.5104 0.175781 14.3046 0.175781 16.1751C0.175781 18.0457 0.500048 19.8398 1.08991 21.5085H31.2616Z" fill="#DD0000"/>
</g>
</g>
<defs>
<clipPath id="clip0_43346_18849">
<rect width="32" height="32" fill="white"/>
</clipPath>
</defs>
</svg>
