<svg width="32" height="32" viewBox="0 0 32 32" fill="none" xmlns="http://www.w3.org/2000/svg">
<g id="flag-for-iran-svgrepo-com 1">
<path id="Vector" d="M16.0001 1C9.4501 1 3.9001 5.15 1.8501 11H30.1501C28.1001 5.15 22.5501 1 16.0001 1Z" fill="#83BF4F"/>
<path id="Vector_2" d="M16.0001 31C22.5501 31 28.1001 26.85 30.1501 21H1.8501C3.9001 26.85 9.4501 31 16.0001 31Z" fill="#ED4C5C"/>
<path id="Vector_3" d="M1.85 11C1.3 12.55 1 14.25 1 16C1 17.75 1.3 19.45 1.85 21H30.15C30.7 19.45 31 17.75 31 16C31 14.25 30.7 12.55 30.15 11H1.85Z" fill="#F9F9F9"/>
<g id="Group">
<path id="Vector_4" d="M29.6998 22.1494L29.5498 22.4494H29.6998V22.1494Z" fill="white"/>
<path id="Vector_5" d="M2.4498 22.4494L2.2998 22.1494V22.4494H2.4498Z" fill="white"/>
<path id="Vector_6" d="M2.79971 9.39941H2.54971C2.49971 9.44941 2.44971 9.49941 2.44971 9.54941H2.79971V9.39941Z" fill="white"/>
<path id="Vector_7" d="M2.7999 10.4996V10.3496H2.2999V10.0496H3.0499V10.4996H4.1499V9.34961H3.9999V10.2996H3.6999V9.34961H3.5499V10.2996H3.2499V9.34961H3.0999V9.84961H2.2999C2.2499 9.94961 2.1999 10.0996 2.1499 10.1996V10.4996H2.7999Z" fill="white"/>
<path id="Vector_8" d="M2.79971 22.4492H2.44971C2.44971 22.4992 2.49971 22.5492 2.54971 22.5992H2.84971L2.79971 22.4492Z" fill="white"/>
<path id="Vector_9" d="M2.3 22.1492H3.05V22.5992H4.15V21.4492H4V22.3992H3.7V21.4492H3.55V22.3992H3.25V21.4492H3.1V21.9492H2.25C2.25 22.0492 2.3 22.0992 2.3 22.1492Z" fill="white"/>
<path id="Vector_10" d="M2.7998 21.5H2.0498C2.0498 21.55 2.0998 21.6 2.0998 21.65H2.7998V21.5Z" fill="white"/>
<path id="Vector_11" d="M6.7998 10.4996H7.4998V10.3496H6.9998V10.0496H7.7498V10.4996H8.8498V9.34961H8.6998V10.3496H8.3998V9.34961H8.1998V10.3496H7.8998V9.34961H7.7498V9.84961H6.7998V10.4996Z" fill="white"/>
<path id="Vector_12" d="M6.5 10.4996V9.84961H5.85V10.0496H6.35V10.3496H5.6V9.84961H4.5V10.5496H4.65V10.0496H5.4V10.4996H6.5Z" fill="white"/>
<path id="Vector_13" d="M4.8999 10.3496H5.1499V10.4996H4.8999V10.3496Z" fill="white"/>
<path id="Vector_14" d="M4.44971 9.39941H7.49971V9.54941H4.44971V9.39941Z" fill="white"/>
<path id="Vector_15" d="M5.85 22.1492H6.35V22.4492H5.6V21.9492H4.5V22.6492H4.65V22.1492H5.4V22.5992H6.5V21.9492H5.85V22.1492Z" fill="white"/>
<path id="Vector_16" d="M4.8999 22.4492H5.1499V22.5992H4.8999V22.4492Z" fill="white"/>
<path id="Vector_17" d="M4.44971 21.5H7.49971V21.65H4.44971V21.5Z" fill="white"/>
<path id="Vector_18" d="M8.6998 22.4492H8.3998V21.4492H8.1998V22.4492H7.8998V21.4492H7.7498V21.9492H6.7998V22.5992H7.4998V22.4492H6.9998V22.1492H7.7498V22.5992H8.8498V21.4492H8.6998V22.4492Z" fill="white"/>
<path id="Vector_19" d="M11.5 10.4996H12.15V10.3496H11.65V10.0496H12.4V10.4996H13.5V9.34961H13.35V10.3496H13.05V9.34961H12.9V10.3496H12.6V9.34961H12.4V9.84961H11.5V10.4996Z" fill="white"/>
<path id="Vector_20" d="M11.1999 10.4996V9.84961H10.4999V10.0496H10.9999V10.3496H10.2499V9.84961H9.1499V10.5496H9.2999V10.0496H10.0999V10.4996H11.1999Z" fill="white"/>
<path id="Vector_21" d="M9.09961 9.39941H12.1496V9.54941H9.09961V9.39941Z" fill="white"/>
<path id="Vector_22" d="M9.59961 10.3496H9.84961V10.4996H9.59961V10.3496Z" fill="white"/>
<path id="Vector_23" d="M13.35 22.4492H13.05V21.4492H12.9V22.4492H12.6V21.4492H12.4V21.9492H11.5V22.5992H12.15V22.4492H11.65V22.1492H12.4V22.5992H13.5V21.4492H13.35V22.4492Z" fill="white"/>
<path id="Vector_24" d="M9.59961 22.4492H9.84961V22.5992H9.59961V22.4492Z" fill="white"/>
<path id="Vector_25" d="M9.09961 21.5H12.1496V21.65H9.09961V21.5Z" fill="white"/>
<path id="Vector_26" d="M10.4999 22.1492H10.9999V22.4492H10.2499V21.9492H9.1499V22.6492H9.2999V22.1492H10.0999V22.5992H11.1999V21.9492H10.4999V22.1492Z" fill="white"/>
<path id="Vector_27" d="M15.8498 10.4996V9.84961H15.1998V10.0496H15.6998V10.3496H14.8998V9.84961H13.7998V10.5496H13.9998V10.0496H14.7498V10.4996H15.8498Z" fill="white"/>
<path id="Vector_28" d="M13.7998 9.39941H16.8498V9.54941H13.7998V9.39941Z" fill="white"/>
<path id="Vector_29" d="M14.25 10.3496H14.5V10.4996H14.25V10.3496Z" fill="white"/>
<path id="Vector_30" d="M16.1499 10.4996H16.7999V10.3496H16.2999V10.0496H17.0999V10.4996H18.1999V9.34961H17.9999V10.3496H17.6999V9.34961H17.5499V10.3496H17.2499V9.34961H17.0999V9.84961H16.1499V10.4996Z" fill="white"/>
<path id="Vector_31" d="M13.7998 21.5H16.8498V21.65H13.7998V21.5Z" fill="white"/>
<path id="Vector_32" d="M15.1998 22.1492H15.6998V22.4492H14.8998V21.9492H13.7998V22.6492H13.9998V22.1492H14.7498V22.5992H15.8498V21.9492H15.1998V22.1492Z" fill="white"/>
<path id="Vector_33" d="M14.25 22.4492H14.5V22.5992H14.25V22.4492Z" fill="white"/>
<path id="Vector_34" d="M17.9999 22.4492H17.6999V21.4492H17.5499V22.4492H17.2499V21.4492H17.0999V21.9492H16.1499V22.5992H16.7999V22.4492H16.2999V22.1492H17.0999V22.5992H18.1999V21.4492H17.9999V22.4492Z" fill="white"/>
<path id="Vector_35" d="M18.8999 10.3496H19.1499V10.4996H18.8999V10.3496Z" fill="white"/>
<path id="Vector_36" d="M18.4497 9.39941H21.4997V9.54941H18.4497V9.39941Z" fill="white"/>
<path id="Vector_37" d="M20.7998 10.4996H21.4998V10.3496H20.9998V10.0496H21.7498V10.4996H22.8498V9.34961H22.6998V10.3496H22.3998V9.34961H22.1998V10.3496H21.8998V9.34961H21.7498V9.84961H20.7998V10.4996Z" fill="white"/>
<path id="Vector_38" d="M20.5 10.4996V9.84961H19.85V10.0496H20.35V10.3496H19.6V9.84961H18.5V10.5496H18.65V10.0496H19.4V10.4996H20.5Z" fill="white"/>
<path id="Vector_39" d="M18.4497 21.5H21.4997V21.65H18.4497V21.5Z" fill="white"/>
<path id="Vector_40" d="M22.6998 22.4492H22.3998V21.4492H22.1998V22.4492H21.8998V21.4492H21.7498V21.9492H20.7998V22.5992H21.4998V22.4492H20.9998V22.1492H21.7498V22.5992H22.8498V21.4492H22.6998V22.4492Z" fill="white"/>
<path id="Vector_41" d="M19.85 22.1492H20.35V22.4492H19.6V21.9492H18.5V22.6492H18.65V22.1492H19.4V22.5992H20.5V21.9492H19.85V22.1492Z" fill="white"/>
<path id="Vector_42" d="M18.8999 22.4492H19.1499V22.5992H18.8999V22.4492Z" fill="white"/>
<path id="Vector_43" d="M25.1999 10.4996V9.84961H24.4999V10.0496H24.9999V10.3496H24.2499V9.84961H23.1499V10.5496H23.2999V10.0496H24.0999V10.4996H25.1999Z" fill="white"/>
<path id="Vector_44" d="M23.5996 10.3496H23.8496V10.4996H23.5996V10.3496Z" fill="white"/>
<path id="Vector_45" d="M23.0996 9.39941H26.1496V9.54941H23.0996V9.39941Z" fill="white"/>
<path id="Vector_46" d="M25.5 10.4996H26.15V10.3496H25.65V10.0496H26.4V10.4996H27.5V9.34961H27.35V10.3496H27.05V9.34961H26.9V10.3496H26.6V9.34961H26.4V9.84961H25.5V10.4996Z" fill="white"/>
<path id="Vector_47" d="M23.5996 22.4492H23.8496V22.5992H23.5996V22.4492Z" fill="white"/>
<path id="Vector_48" d="M24.4999 22.1492H24.9999V22.4492H24.2499V21.9492H23.1499V22.6492H23.2999V22.1492H24.0999V22.5992H25.1999V21.9492H24.4999V22.1492Z" fill="white"/>
<path id="Vector_49" d="M23.0996 21.5H26.1496V21.65H23.0996V21.5Z" fill="white"/>
<path id="Vector_50" d="M27.35 22.4492H27.05V21.4492H26.9V22.4492H26.6V21.4492H26.4V21.9492H25.5V22.5992H26.15V22.4492H25.65V22.1492H26.4V22.5992H27.5V21.4492H27.35V22.4492Z" fill="white"/>
<path id="Vector_51" d="M27.8 9.54941H29.55C29.5 9.49941 29.5 9.44941 29.45 9.39941H27.75C27.8 9.39941 27.8 9.54941 27.8 9.54941Z" fill="white"/>
<path id="Vector_52" d="M29.1996 10.0494H29.6996V10.3494H28.9496V9.89941H27.8496V10.5494H27.9996V10.0494H28.7496V10.4994H29.8496V10.2494C29.7996 10.1494 29.7496 9.99941 29.6996 9.89941H29.1996V10.0494Z" fill="white"/>
<path id="Vector_53" d="M28.25 10.3496H28.5V10.4996H28.25V10.3496Z" fill="white"/>
<path id="Vector_54" d="M28.25 22.4492H28.5V22.5992H28.25V22.4492Z" fill="white"/>
<path id="Vector_55" d="M27.7998 21.5V21.65H29.8998C29.8998 21.6 29.9498 21.55 29.9498 21.5H27.7998Z" fill="white"/>
<path id="Vector_56" d="M29.1997 22.1492H29.6997C29.7497 22.0992 29.7497 22.0492 29.7997 21.9492H29.1997V22.1492Z" fill="white"/>
<path id="Vector_57" d="M28.8998 22.45V22H27.7998V22.65H27.9998V22.15H28.7498V22.6H29.4498C29.4998 22.55 29.4998 22.5 29.5498 22.45H28.8998Z" fill="white"/>
</g>
<g id="Group_2">
<path id="Vector_58" d="M18.25 16.9496C18.7 15.6496 18.25 14.1996 17.25 13.2996C18.4 14.9996 17.95 17.2496 16.35 18.4496L16.45 15.6496V13.4496C16.25 13.3496 16.1 13.2496 16 13.0996C15.9 13.2496 15.75 13.3996 15.55 13.4496V15.6496L15.65 18.4496C14 17.2496 13.6 14.9996 14.75 13.2996C13.7 14.1996 13.3 15.6496 13.75 16.9496C14.05 17.8496 14.65 18.4996 15.4 18.8996C14.95 19.0496 14.45 19.1496 13.95 19.1496C14.55 19.3496 15.15 19.3496 15.7 19.2496V19.3496L16 19.7496L16.3 19.3496V19.2496C16.85 19.3496 17.45 19.3496 18.05 19.1496C17.55 19.1496 17.05 19.0996 16.6 18.8996C17.35 18.4996 17.95 17.7996 18.25 16.9496Z" fill="#ED4C5C"/>
<path id="Vector_59" d="M19.3498 14.5492C18.9498 13.8992 18.2998 13.3992 17.5498 13.1992C19.1998 14.4492 19.5498 16.7992 18.2998 18.4492C19.6998 17.6992 20.1498 15.9492 19.3498 14.5492Z" fill="#ED4C5C"/>
<path id="Vector_60" d="M14.3998 13.1992C13.6498 13.3992 12.9998 13.8492 12.5998 14.5492C11.7998 15.8992 12.2998 17.6492 13.6498 18.4492C12.4498 16.7992 12.7498 14.4492 14.3998 13.1992Z" fill="#ED4C5C"/>
<path id="Vector_61" d="M15.25 12.9996C15.5 13.1496 15.85 13.0996 16 12.8496C16.15 13.0996 16.5 13.1496 16.75 12.9996C16.95 12.8496 17.05 12.5996 16.95 12.3496C16.9 12.6496 16.65 12.7996 16.35 12.7496C16.2 12.6996 16.1 12.6496 16 12.4996C15.95 12.6496 15.8 12.6996 15.65 12.7496C15.35 12.7996 15.1 12.5996 15.05 12.3496C14.95 12.5996 15.05 12.8496 15.25 12.9996Z" fill="#ED4C5C"/>
</g>
</g>
</svg>
