<svg width="32" height="32" viewBox="0 0 32 32" fill="none" xmlns="http://www.w3.org/2000/svg">
<g id="italy-flag-circular-17751 1" clip-path="url(#clip0_43354_18974)">
<g id="Group">
<path id="Vector" d="M21.5093 1.08984V31.2619C27.7194 29.0664 32.1706 23.1489 32.1759 16.1878V16.1636C32.1706 9.20291 27.7191 3.28504 21.5093 1.08984Z" fill="#CE2B37"/>
<path id="Vector_2" d="M10.8424 31.2616V1.08984C4.62876 3.28682 0.175781 9.20967 0.175781 16.1757C0.175781 23.1418 4.62876 29.0646 10.8424 31.2616Z" fill="#009246"/>
<path id="Vector_3" d="M10.8428 31.2616C12.5114 31.8515 14.3055 32.1758 16.1761 32.1758C18.0467 32.1758 19.8408 31.8519 21.5094 31.2616V1.08991C19.8408 0.499692 18.0467 0.175781 16.1761 0.175781C14.3055 0.175781 12.5114 0.500048 10.8428 1.08991V31.2616Z" fill="#F3F4F5"/>
</g>
</g>
<defs>
<clipPath id="clip0_43354_18974">
<rect width="32" height="32" fill="white"/>
</clipPath>
</defs>
</svg>
