<svg width="32" height="32" viewBox="0 0 32 32" fill="none" xmlns="http://www.w3.org/2000/svg">
<g id="spain-flag-circular-17884 1" clip-path="url(#clip0_43354_18985)">
<g id="Group">
<path id="Vector" d="M0.175781 16.1759C0.175781 19.0911 0.958715 21.8222 2.3212 24.176H30.0304C31.3928 21.8222 32.1758 19.0911 32.1758 16.1759C32.1758 13.2606 31.3928 10.5296 30.0304 8.17578H2.3212C0.958715 10.5296 0.175781 13.2606 0.175781 16.1759Z" fill="#FFC400"/>
<path id="Vector_2" d="M30.0304 8.17588C29.9348 8.01054 29.8363 7.84663 29.735 7.68485C26.9051 3.176 21.8921 0.175781 16.1759 0.175781C13.26 0.175781 10.5293 0.959791 8.17587 2.32336C5.9156 3.63253 4.00307 5.47611 2.61676 7.68521C2.51542 7.84663 2.41729 8.01054 2.32129 8.17588H30.0304Z" fill="#C60B1E"/>
<path id="Vector_3" d="M2.32129 24.1758C2.41693 24.3411 2.51542 24.505 2.61676 24.6665C4.00307 26.8755 5.9156 28.7188 8.17587 30.0283C10.5293 31.3919 13.26 32.1759 16.1759 32.1759C21.8921 32.1759 26.9051 29.1757 29.735 24.6665C29.8363 24.5047 29.9348 24.3411 30.0304 24.1758H2.32129Z" fill="#C60B1E"/>
</g>
</g>
<defs>
<clipPath id="clip0_43354_18985">
<rect width="32" height="32" fill="white"/>
</clipPath>
</defs>
</svg>
