<svg width="32" height="32" viewBox="0 0 32 32" fill="none" xmlns="http://www.w3.org/2000/svg">
    <g id="Group">
        <path id="Vector"
            d="M31.0859 10.6667C28.8903 4.45653 22.9728 0.00533333 16.0121 0H15.9879C9.0272 0.00533333 3.10933 4.45653 0.914133 10.6667C0.323911 12.3353 0 14.1294 0 16C0 17.8706 0.324267 19.6651 0.914133 21.3333C3.11111 27.547 9.03396 32 16 32C22.966 32 28.8889 27.547 31.0859 21.3333C31.6757 19.6647 32 17.8706 32 16C32 14.1294 31.6761 12.3353 31.0859 10.6667Z"
            fill="#F31930" />
        <path id="Vector_2"
            d="M14.9695 22.1622C11.5067 22.1622 8.69961 19.4031 8.69961 15.9994C8.69961 12.5956 11.5067 9.83652 14.9695 9.83652C16.8329 9.83652 18.5016 10.6401 19.65 11.9087C18.2637 9.7391 15.8089 8.2959 13.01 8.2959C8.68147 8.2959 5.17285 11.7448 5.17285 15.9997C5.17285 20.2547 8.68147 23.7035 13.01 23.7035C15.81 23.7035 18.2655 22.2593 19.6514 20.0883C18.5033 21.3579 16.834 22.1622 14.9695 22.1622Z"
            fill="#F3F4F5" />
        <path id="Vector_3"
            d="M22.3743 12.4014L22.311 15.249L19.6543 15.9704L22.2733 16.9031L22.21 19.5146L23.9181 17.4751L26.4991 18.3704L25.0061 16.182L26.828 14.0056L24.0319 14.7765L22.3743 12.4014Z"
            fill="#F3F4F5" />
    </g>
</svg>