<svg width="32" height="32" viewBox="0 0 32 32" fill="none" xmlns="http://www.w3.org/2000/svg">
<g id="Group">
<path id="Vector" d="M0.913086 10.6667H31.0852C28.8896 4.45653 22.9721 0.00533333 16.011 0H15.9869C9.02615 0.00533333 3.10864 4.45653 0.913086 10.6667Z" fill="#006F2E"/>
<path id="Vector_2" d="M31.0852 21.334H0.913086C3.11006 27.5477 9.03326 32.0007 15.9993 32.0007C22.9654 32.0007 28.8882 27.5477 31.0852 21.334Z" fill="black"/>
<path id="Vector_3" d="M31.0859 21.3327C31.6757 19.6641 32 17.8699 32 15.9993C32 14.1288 31.6761 12.3346 31.0859 10.666H0.913778C0.323911 12.3346 0 14.1288 0 15.9993C0 17.8699 0.324267 19.6641 0.914133 21.3327H31.0859Z" fill="#F3F4F5"/>
<path id="Vector_4" d="M10.6667 31.0858V0.914062C4.45298 3.11104 0 9.03389 0 15.9999C0 22.966 4.45298 28.8888 10.6667 31.0858Z" fill="#F70000"/>
</g>
</svg>
