<svg width="32" height="32" viewBox="0 0 32 32" fill="none" xmlns="http://www.w3.org/2000/svg">
<g id="Group 33973">
<mask id="mask0_43354_18956" style="mask-type:alpha" maskUnits="userSpaceOnUse" x="0" y="0" width="32" height="32">
<circle id="Ellipse 3791" cx="16" cy="16" r="16" fill="#D9D9D9"/>
</mask>
<g mask="url(#mask0_43354_18956)">
<g id="Group">
<path id="Vector" d="M-4.57935 31.9981H37.1397C38.4811 31.9229 39.5608 30.8144 39.5608 29.4728V2.52472C39.5608 1.14124 38.4221 0.00817725 37.0217 0H-4.46088C-5.86133 0.00817725 -7 1.14175 -7 2.52472V29.4647C-7 30.8144 -5.92031 31.9229 -4.57935 31.9981Z" fill="#FEFEFE"/>
<path id="Vector_2" d="M13.0263 19.1868V31.9996H19.5035V19.1868H39.5608V12.7881H19.5035V0.000976562H13.0263V12.7881H-7V19.1868H13.0263Z" fill="#C8102E"/>
<path id="Vector_3" d="M21.6621 10.3575V0H37.0391C38.1017 0.0168656 39.0127 0.675134 39.3842 1.59967L21.6621 10.3575Z" fill="#012169"/>
<path id="Vector_4" d="M21.6621 21.6406V31.9981H37.14C38.1607 31.9399 39.021 31.2898 39.3837 30.3985L21.6621 21.6406Z" fill="#012169"/>
<path id="Vector_5" d="M10.8652 21.6406V31.9981H-4.57953C-5.60024 31.9399 -6.46886 31.2898 -6.82324 30.3816L10.8652 21.6406Z" fill="#012169"/>
<path id="Vector_6" d="M10.8652 10.3575V0H-4.47813C-5.54075 0.0168656 -6.46059 0.683311 -6.82324 1.61654L10.8652 10.3575Z" fill="#012169"/>
<path id="Vector_7" d="M39.5608 2.70508L23.4922 10.6677H27.0877L39.5608 4.49896V2.70508Z" fill="#C8102E"/>
<path id="Vector_8" d="M9.03761 21.334H5.44208L-7 27.4823V29.271L9.06866 21.334H9.03761Z" fill="#C8102E"/>
<path id="Vector_9" d="M1.87242 10.6734H5.46795L-7 4.50977V6.29343L1.87242 10.6734Z" fill="#C8102E"/>
<path id="Vector_10" d="M30.6463 21.3242H27.0508L39.5601 27.5134V25.7297L30.6463 21.3242Z" fill="#C8102E"/>
</g>
</g>
</g>
</svg>
