<svg width="32" height="32" viewBox="0 0 32 32" fill="none" xmlns="http://www.w3.org/2000/svg">
<g id="usa-flag-circular-17882 1" clip-path="url(#clip0_43353_18886)">
<g id="Group">
<path id="Vector" d="M0.35791 18.5908C0.686444 20.7594 1.4516 22.7839 2.5588 24.5748H29.794C30.9012 22.7839 31.6664 20.7594 31.9949 18.5908H0.35791Z" fill="#F3F4F5"/>
<path id="Vector_2" d="M24.9364 29.5615H7.41602C9.93299 31.212 12.9413 32.1752 16.1762 32.1752C19.411 32.1752 22.4194 31.212 24.9364 29.5615Z" fill="#F3F4F5"/>
<path id="Vector_3" d="M2.55811 24.5762C3.79259 26.5733 5.45446 28.2768 7.41535 29.5628H24.9357C26.8969 28.2768 28.5585 26.5733 29.793 24.5762H2.55811Z" fill="#DC3027"/>
<path id="Vector_4" d="M17.8216 0.259692C17.2805 0.204226 16.7315 0.175781 16.1758 0.175781C7.33916 0.175781 0.175781 7.33916 0.175781 16.1758C0.175781 16.9968 0.238003 17.8035 0.35747 18.5914H17.8216V0.259692Z" fill="#283991"/>
<path id="Vector_5" d="M5.04285 8.38695L4.54792 6.8673L5.83681 5.93041H4.24285L4.14579 5.63281C3.64019 6.20917 3.17583 6.82179 2.75628 7.46677L2.45654 8.38695L3.74934 7.44721L5.04285 8.38695Z" fill="#F3F4F5"/>
<path id="Vector_6" d="M8.26229 3.60985L9.5494 4.54531L9.05589 3.02994L10.3434 2.08913H8.7494L8.72593 2.0166C8.22318 2.28185 7.735 2.57056 7.26567 2.88558L7.46762 3.03242L6.98193 4.54531L8.26229 3.60985Z" fill="#F3F4F5"/>
<path id="Vector_7" d="M2.95278 14.551L2.45855 16.0692L3.74922 15.1305L5.04344 16.0692L4.54922 14.551L5.83633 13.6123H4.24344L3.74922 12.0977L3.255 13.6123H1.66211L2.95278 14.551Z" fill="#F3F4F5"/>
<path id="Vector_8" d="M11.984 14.551L11.4898 16.0692L12.7805 15.1305L14.0747 16.0692L13.5805 14.551L14.8676 13.6123H13.2747L12.7805 12.0977L12.2898 13.6123H10.6934L11.984 14.551Z" fill="#F3F4F5"/>
<path id="Vector_9" d="M11.984 6.86775L11.4898 8.38597L12.7805 7.4473L14.0747 8.38597L13.5805 6.86775L14.8676 5.92908H13.2747L12.7805 4.41797L12.2898 5.92908H10.6934L11.984 6.86775Z" fill="#F3F4F5"/>
<path id="Vector_10" d="M7.45752 10.7076L6.9633 12.2294L8.25752 11.2907L9.54819 12.2294L9.05397 10.7076L10.3446 9.77248H8.74819L8.25752 8.25781L7.7633 9.77248H6.17041L7.45752 10.7076Z" fill="#F3F4F5"/>
<path id="Vector_11" d="M31.9676 13.6045H17.8218V18.5912H31.9942C32.1137 17.8036 32.1759 16.9968 32.1759 16.1759C32.1759 15.3001 32.1027 14.4422 31.9676 13.6045Z" fill="#DC3027"/>
<path id="Vector_12" d="M17.8218 13.6041H31.9676C31.6163 11.4313 30.8266 9.40643 29.6938 7.62012H17.8218V13.6041Z" fill="#F3F4F5"/>
<path id="Vector_13" d="M17.8218 7.61948H29.6934C28.418 5.60846 26.7078 3.9025 24.6929 2.63281H17.8218V7.61948Z" fill="#DC3027"/>
<path id="Vector_14" d="M17.8218 0.260742V2.63336H24.6932C22.6641 1.35443 20.3292 0.517809 17.8218 0.260742Z" fill="#F3F4F5"/>
</g>
</g>
<defs>
<clipPath id="clip0_43353_18886">
<rect width="32" height="32" fill="white"/>
</clipPath>
</defs>
</svg>
